<svg width="405" height="140" viewBox="0 0 405 140" fill="none" xmlns="http://www.w3.org/2000/svg">
<line x1="305.828" y1="0.194852" x2="248.002" y2="139.18" stroke="#151A1B" stroke-width="1.01449"/>
<line x1="294.674" y1="118.884" x2="286.558" y2="139.174" stroke="#151A1B" stroke-width="1.01449"/>
<line x1="366.779" y1="139.173" x2="358.663" y2="118.883" stroke="#151A1B" stroke-width="1.01449"/>
<line x1="404.312" y1="139.176" x2="347.5" y2="0.190791" stroke="#151A1B" stroke-width="1.01449"/>
<line x1="305.359" y1="0.508379" x2="347.968" y2="0.508379" stroke="#151A1B" stroke-width="1.01449"/>
<line x1="366.227" y1="139.493" x2="404.777" y2="139.493" stroke="#151A1B" stroke-width="1.01449"/>
<line x1="247.531" y1="139.493" x2="287.096" y2="139.493" stroke="#151A1B" stroke-width="1.01449"/>
<line x1="294.203" y1="119.204" x2="359.131" y2="119.204" stroke="#151A1B" stroke-width="1.01449"/>
<line x1="308.398" y1="84.7096" x2="343.906" y2="84.7095" stroke="#151A1B" stroke-width="1.01449"/>
<line x1="307.931" y1="85.0209" x2="326.191" y2="41.3977" stroke="#151A1B" stroke-width="1.01449"/>
<line x1="326.109" y1="41.3979" x2="344.366" y2="85.0225" stroke="#151A1B" stroke-width="1.01449"/>
<rect x="277.977" y="85.2168" width="95.3623" height="33.4783" fill="#151A1B"/>
<path d="M403.766 138.988H367.244L358.113 118.698L342.896 79.6405L338.331 68.9883L326.664 41.0897L309.925 1.01727H346.447L403.766 138.988Z" fill="#151A1B"/>
<path d="M305.866 1.01562H342.387L285.069 138.987H248.547L305.866 1.01562Z" fill="#151A1B"/>
<line x1="275.39" y1="0.194852" x2="217.564" y2="139.18" stroke="#151A1B" stroke-width="1.01449"/>
<line x1="188.228" y1="139.182" x2="129.388" y2="0.196631" stroke="#151A1B" stroke-width="1.01449"/>
<path d="M202.391 84.7109L167.936 0.193119" stroke="#151A1B" stroke-width="1.01449"/>
<line x1="236.844" y1="0.19228" x2="202.351" y2="84.3955" stroke="#151A1B" stroke-width="1.01449"/>
<line x1="187.68" y1="139.493" x2="218.114" y2="139.493" stroke="#151A1B" stroke-width="1.01449"/>
<line x1="129.859" y1="0.508379" x2="168.41" y2="0.508379" stroke="#151A1B" stroke-width="1.01449"/>
<line x1="236.375" y1="0.508379" x2="274.926" y2="0.508379" stroke="#151A1B" stroke-width="1.01449"/>
<line x1="236.375" y1="0.508379" x2="274.926" y2="0.508379" stroke="#151A1B" stroke-width="1.01449"/>
<line x1="129.859" y1="0.508379" x2="168.41" y2="0.508379" stroke="#151A1B" stroke-width="1.01449"/>
<path d="M217.109 138.988H188.704L130.37 1.01727H167.766L201.892 84.7129L217.109 138.988Z" fill="#151A1B"/>
<path d="M236.876 1.01562H274.412L217.093 138.987H188.688L202.383 85.7258L236.876 1.01562Z" fill="#151A1B"/>
<line x1="58.2965" y1="0.194852" x2="0.470373" y2="139.18" stroke="#151A1B" stroke-width="1.01449"/>
<line x1="46.1272" y1="118.884" x2="38.0113" y2="139.174" stroke="#151A1B" stroke-width="1.01449"/>
<line x1="119.248" y1="139.193" x2="110.117" y2="118.903" stroke="#151A1B" stroke-width="1.01449"/>
<line x1="156.782" y1="139.179" x2="98.9556" y2="0.19373" stroke="#151A1B" stroke-width="1.01449"/>
<line x1="57.8281" y1="0.508379" x2="99.4223" y2="0.508379" stroke="#151A1B" stroke-width="1.01449"/>
<line x1="118.695" y1="139.493" x2="157.246" y2="139.493" stroke="#151A1B" stroke-width="1.01449"/>
<line y1="139.493" x2="38.5507" y2="139.493" stroke="#151A1B" stroke-width="1.01449"/>
<line x1="45.6562" y1="119.204" x2="110.584" y2="119.204" stroke="#151A1B" stroke-width="1.01449"/>
<line x1="60.8672" y1="84.7096" x2="96.8817" y2="84.7095" stroke="#151A1B" stroke-width="1.01449"/>
<line x1="60.3993" y1="85.0209" x2="78.6601" y2="41.3977" stroke="#151A1B" stroke-width="1.01449"/>
<line x1="78.5773" y1="41.3979" x2="96.8348" y2="85.0225" stroke="#151A1B" stroke-width="1.01449"/>
<rect x="30.4297" y="85.2168" width="95.3623" height="33.4783" fill="#151A1B"/>
<path d="M156.234 138.988H119.713L110.582 118.698L95.3648 79.6405L90.7996 68.9883L79.1329 41.0897L62.3938 1.01727H98.9155L156.234 138.988Z" fill="#151A1B"/>
<path d="M58.3345 1.01562H94.8562L37.5374 138.987H1.01562L58.3345 1.01562Z" fill="#151A1B"/>
</svg>
