<svg width="71" height="36" viewBox="0 0 71 36" fill="none" xmlns="http://www.w3.org/2000/svg">
<path d="M1 34C0.447715 34 0 34.4477 0 35C0 35.5523 0.447715 36 1 36V34ZM63 35V36H64V35H63ZM63.7071 0.292893C63.3166 -0.0976311 62.6834 -0.0976311 62.2929 0.292893L55.9289 6.65685C55.5384 7.04738 55.5384 7.68054 55.9289 8.07107C56.3195 8.46159 56.9526 8.46159 57.3431 8.07107L63 2.41421L68.6569 8.07107C69.0474 8.46159 69.6805 8.46159 70.0711 8.07107C70.4616 7.68054 70.4616 7.04738 70.0711 6.65685L63.7071 0.292893ZM1 36H63V34H1V36ZM64 35V1H62V35H64Z" fill="#151A1B"/>
</svg>
