<svg width="44" height="44" viewBox="0 0 44 44" fill="none" xmlns="http://www.w3.org/2000/svg">
<g clip-path="url(#clip0_901_2525)">
<circle cx="22" cy="22" r="22" fill="#444444"/>
<path d="M10.2857 22.4114L15.3436 24.2974L17.3153 30.6412C17.401 31.0699 17.9154 31.1556 18.2583 30.8984L21.0873 28.5838C21.3445 28.3266 21.7731 28.3266 22.116 28.5838L27.1739 32.27C27.5168 32.5272 28.0312 32.3558 28.1169 31.9271L31.8889 13.9245C31.9746 13.4958 31.546 13.0672 31.1173 13.2387L10.2857 21.297C9.77131 21.4684 9.77131 22.24 10.2857 22.4114ZM17.0581 23.3544L27.0024 17.2678C27.1739 17.1821 27.3453 17.4393 27.1739 17.525L19.0298 25.1547C18.7726 25.4119 18.5155 25.7548 18.5155 26.1834L18.2583 28.2409C18.2583 28.4981 17.8297 28.5838 17.7439 28.2409L16.7152 24.4689C16.458 24.0403 16.6295 23.5259 17.0581 23.3544Z" fill="white"/>
</g>
<defs>
<clipPath id="clip0_901_2525">
<rect width="44" height="44" rx="22" fill="white"/>
</clipPath>
</defs>
</svg>
