<svg width="44" height="44" viewBox="0 0 44 44" fill="none" xmlns="http://www.w3.org/2000/svg">
<g clip-path="url(#clip0_901_2521)">
<circle cx="22" cy="22" r="22" fill="#444444"/>
<path d="M30.7195 13.2687C28.5463 11.103 25.6488 9.8999 22.5902 9.8999C16.2317 9.8999 11.0805 15.0332 11.0805 21.3697C11.0805 23.3749 11.6439 25.3801 12.6098 27.0645L11 32.9999L17.1171 31.3957C18.8073 32.278 20.6585 32.7593 22.5902 32.7593C28.9488 32.7593 34.1 27.6259 34.1 21.2895C34.0195 18.3218 32.8927 15.4343 30.7195 13.2687ZM28.1439 25.4603C27.9024 26.102 26.7756 26.7437 26.2122 26.8239C25.7293 26.9041 25.0854 26.9041 24.4415 26.7437C24.039 26.5832 23.4756 26.4228 22.8317 26.102C19.9341 24.8989 18.0829 22.0114 17.922 21.7707C17.761 21.6103 16.7146 20.2468 16.7146 18.803C16.7146 17.3593 17.439 16.7176 17.6805 16.3968C17.922 16.0759 18.2439 16.0759 18.4854 16.0759C18.6463 16.0759 18.8878 16.0759 19.0488 16.0759C19.2098 16.0759 19.4512 15.9957 19.6927 16.5572C19.9341 17.1187 20.4976 18.5624 20.578 18.6426C20.6585 18.803 20.6585 18.9634 20.578 19.1239C20.4976 19.2843 20.4171 19.4447 20.2561 19.6051C20.0951 19.7655 19.9341 20.0062 19.8537 20.0864C19.6927 20.2468 19.5317 20.4072 19.6927 20.6478C19.8537 20.9687 20.4171 21.8509 21.3024 22.653C22.4293 23.6155 23.3146 23.9364 23.6366 24.0968C23.9585 24.2572 24.1195 24.177 24.2805 24.0166C24.4415 23.8562 25.0049 23.2145 25.1659 22.8937C25.3268 22.5728 25.5683 22.653 25.8098 22.7332C26.0512 22.8134 27.5 23.5353 27.7415 23.6957C28.0634 23.8562 28.2244 23.9364 28.3049 24.0166C28.3854 24.2572 28.3854 24.8187 28.1439 25.4603Z" fill="white"/>
</g>
<defs>
<clipPath id="clip0_901_2521">
<rect width="44" height="44" rx="22" fill="white"/>
</clipPath>
</defs>
</svg>
