<svg width="44" height="44" viewBox="0 0 44 44" fill="none" xmlns="http://www.w3.org/2000/svg">
<g clip-path="url(#clip0_580_12256)">
<path d="M23.302 32.468L32.4687 23.3014C32.6356 23.127 32.7664 22.9214 32.8537 22.6964C33.0371 22.25 33.0371 21.7494 32.8537 21.303C32.7664 21.078 32.6356 20.8724 32.4687 20.698L23.302 11.5314C23.1311 11.3604 22.9282 11.2248 22.7048 11.1323C22.4815 11.0398 22.2421 10.9922 22.0004 10.9922C21.5121 10.9922 21.0439 11.1861 20.6987 11.5314C20.3535 11.8766 20.1595 12.3448 20.1595 12.833C20.1595 13.3212 20.3535 13.7895 20.6987 14.1347L26.7487 20.1664L12.8337 20.1664C12.3475 20.1664 11.8811 20.3595 11.5373 20.7033C11.1935 21.0471 11.0004 21.5135 11.0004 21.9997C11.0004 22.4859 11.1935 22.9522 11.5373 23.2961C11.8811 23.6399 12.3475 23.833 12.8337 23.833L26.7487 23.833L20.6987 29.8647C20.5268 30.0351 20.3905 30.2379 20.2974 30.4613C20.2043 30.6847 20.1564 30.9243 20.1564 31.1664C20.1564 31.4084 20.2043 31.648 20.2974 31.8714C20.3905 32.0948 20.5268 32.2976 20.6987 32.468C20.8691 32.6399 21.0719 32.7762 21.2953 32.8693C21.5187 32.9624 21.7583 33.0103 22.0004 33.0103C22.2424 33.0103 22.482 32.9624 22.7054 32.8693C22.9288 32.7762 23.1316 32.6399 23.302 32.468Z" fill="#262526"/>
</g>
<defs>
<clipPath id="clip0_580_12256">
<rect x="44" width="44" height="44" rx="22" transform="rotate(90 44 0)" fill="white"/>
</clipPath>
</defs>
</svg>
